<svg xmlns="http://www.w3.org/2000/svg" version="1.1" xmlns:xlink="http://www.w3.org/1999/xlink" xmlns:svgjs="http://svgjs.com/svgjs" width="100%" height="100%" viewBox="0 0 1000 600"><rect width="1000" height="600" x="0" y="0" fill="#141a46"/><g><rect width="333.3333333333333" height="333.3333333333333" y="266.51637630694165" fill="#ec8b5e" transform="matrix(0.5116783021276864,0,0,0.5116783021276864,0,78.34965324450127)" x="244.29423522949216"/><path d="M403.22731153739727 508.18305278809163L338.2336252947994 508.18305278809163L338.2336252947994 504.55300231800965L356.4154433014708 495.46209331467395L356.4154433014708 370.9040137064704L338.2336252947994 361.8131047031347L338.2336252947994 358.1830542330527L404.837160006738 358.1830542330527Q429.83715976591117 358.1830542330527 447.5454929286588 367.0530036425573Q465.28539174766803 375.9229530520619 474.4709977197885 391.35855896397567Q483.68816934817045 406.825730532151 483.68816934817045 426.36487175807036L483.68816934817045 426.36487175807036Q483.68816934817045 444.10477057707965 477.6591290022083 459.0984573013312Q471.6300886562461 474.0921440255828 460.7399372460002 485.0138610920902Q449.8182201794927 495.9040125023361 435.1717556741186 502.05931547334467Q420.4937255124828 508.18305278809163 403.22731153739727 508.18305278809163L403.22731153739727 508.18305278809163ZM399.59726106731534 370.68305411263924L399.59726106731534 370.68305411263924L376.8699885589761 370.68305411263924L376.8699885589761 495.6830529085051L403.0063519435662 495.6830529085051Q421.18816995023764 495.6830529085051 434.47731123636373 488.07572974946373Q447.7664525224899 480.4684065904224 454.931856493869 466.48482086654144Q462.0972604652482 452.5012351426605 462.0972604652482 433.40401310440325L462.0972604652482 433.40401310440325Q462.0972604652482 414.5593163162386 454.8371595250843 400.3547709985266Q447.5454929286588 386.1502256808146 433.56190720477787 378.41663989672696Q419.6098871371585 370.68305411263924 399.59726106731534 370.68305411263924Z " fill="#141a46" transform="matrix(0.5116783021276864,0,0,0.5116783021276864,0,78.34965324450127)"/><path d="M724.9845345629499 505.944243100121L660.9609049497976 505.944243100121L660.9609049497976 502.36837257777404L678.871352087814 493.41314900876586L678.871352087814 370.71414830284124L660.9609049497976 361.7589247338331L660.9609049497976 358.1830542114861L726.5703554032951 358.1830542114861Q751.1972202180676 358.1830542114861 768.6412494618647 366.9206160965253Q786.1163732319432 375.65817798156456 795.1648803797952 390.86340133310966Q804.2444820539286 406.0997192109361 804.2444820539286 425.3472309790474L804.2444820539286 425.3472309790474Q804.2444820539286 442.8223547491259 798.3054275342043 457.5922547327331Q792.3663730144801 472.3621547163404 781.6387614474392 483.1208608096627Q770.8800553541168 493.84847237670374 756.4521951596037 499.91190500155307Q741.9932404388092 505.944243100121 724.9845345629499 505.944243100121L724.9845345629499 505.944243100121ZM721.4086640406028 370.4964866188723L721.4086640406028 370.4964866188723L699.0206051180825 370.4964866188723L699.0206051180825 493.63081069273477L724.766872878981 493.63081069273477Q742.6773200169972 493.63081069273477 755.7681155814155 486.13702985894673Q768.8589111458338 478.6432490251586 775.9173686116839 464.86837388255225Q782.9758260775341 451.0934987399459 782.9758260775341 432.2813103397725L782.9758260775341 432.2813103397725Q782.9758260775341 413.7178781498493 775.8240850328401 399.72534132327405Q768.6412494618647 385.73280449669875 754.8663743192584 378.11464555778554Q741.1225937029334 370.4964866188723 721.4086640406028 370.4964866188723ZM890.4385089056323 505.944243100121L834.4683615993312 505.944243100121L834.4683615993312 502.36837257777404L852.3788087373475 493.41314900876586L852.3788087373475 370.71414830284124L834.4683615993312 361.7589247338331L834.4683615993312 358.1830542114861L890.4385089056323 358.1830542114861L890.4385089056323 361.7589247338331L872.5280617676159 370.71414830284124L872.5280617676159 423.54374845473325L948.6474621041854 423.54374845473325L948.6474621041854 370.71414830284124L930.7370149661691 361.7589247338331L930.7370149661691 358.1830542114861L986.7071622724701 358.1830542114861L986.7071622724701 361.7589247338331L968.7967151344538 370.71414830284124L968.7967151344538 493.41314900876586L986.7071622724701 502.36837257777404L986.7071622724701 505.944243100121L930.7370149661691 505.944243100121L930.7370149661691 502.36837257777404L948.6474621041854 493.41314900876586L948.6474621041854 435.85718086211955L872.5280617676159 435.85718086211955L872.5280617676159 493.41314900876586L890.4385089056323 502.36837257777404L890.4385089056323 505.944243100121ZM1187.515612996966 505.944243100121L1071.7817861780482 505.944243100121L1071.7817861780482 502.36837257777404L1089.6922333160642 493.41314900876586L1089.6922333160642 370.71414830284124L1071.7817861780482 361.7589247338331L1071.7817861780482 358.1830542114861L1181.2656132144293 358.1830542114861L1181.2656132144293 396.67807774770876L1177.6897426920823 396.67807774770876L1163.790489444351 370.4964866188723L1109.8414863463327 370.4964866188723L1109.8414863463327 423.54374845473325L1147.9011865146176 423.54374845473325L1159.0952159758776 404.9803162648101L1162.6710864982247 404.9803162648101L1162.6710864982247 454.0163842103861L1159.0952159758776 454.0163842103861L1147.9011865146176 435.85718086211955L1109.8414863463327 435.85718086211955L1109.8414863463327 493.63081069273477L1170.0715837531689 493.63081069273477L1183.9397424746194 465.21041367164634L1187.515612996966 465.21041367164634L1187.515612996966 505.944243100121ZM1258.7220781810938 505.944243100121L1254.0268047126206 505.944243100121L1213.0442190738959 415.7079278318511L1198.0566574063196 408.77384847112603L1198.0566574063196 405.19797794877906L1251.5703371363998 405.19797794877906L1251.5703371363998 408.77384847112603L1233.1934721041644 415.49026614788215L1233.1934721041644 416.8273307779771L1261.8626253355028 479.29623407706544L1262.7643665976598 479.29623407706544L1288.0442164643391 418.1954899343534L1288.0442164643391 416.8273307779771L1271.937251850637 408.77384847112603L1271.937251850637 405.19797794877906L1315.811628433521 405.19797794877906L1315.811628433521 408.77384847112603L1299.2382459255996 416.6096690940082L1258.7220781810938 505.944243100121ZM1368.641228585413 508.18304899237313L1368.641228585413 508.18304899237313Q1346.9372492410807 508.18304899237313 1334.4061551497252 494.9678753228298Q1321.8439665320889 481.75270165328646 1321.8439665320889 460.04872230895415L1321.8439665320889 460.04872230895415Q1321.8439665320889 443.2576781170638 1328.4671006300014 430.38454423661454Q1335.059140201632 417.5114103561653 1345.9111298737985 410.2352912063461Q1356.7942140722457 402.959172056527 1369.54296984757 402.959172056527L1369.54296984757 402.959172056527Q1387.2357553016172 402.959172056527 1397.4036653955955 415.27260446391324Q1407.6026700158545 427.5860368712995 1407.6026700158545 450.65817537200803L1407.6026700158545 450.65817537200803L1406.4832670697288 451.7775783181341L1339.536751986136 451.7775783181341Q1339.7544136701054 462.06986651723724 1343.5790404027025 471.1183736650892Q1347.3725726090183 480.1979753392225 1355.7680947049635 485.79499006985264Q1364.1636168009086 491.39200480048277 1378.2805317326092 491.39200480048277L1378.2805317326092 491.39200480048277Q1390.5939641399955 491.39200480048277 1407.167346647917 482.4367812314746L1407.167346647917 482.4367812314746L1407.8203316998238 482.4367812314746L1407.8203316998238 484.6755871237266Q1402.6897348634125 494.31489027092294 1392.4907302431534 501.248969631648Q1382.2917256228939 508.18304899237313 1368.641228585413 508.18304899237313ZM1365.967099325223 412.8161368876922L1365.967099325223 412.8161368876922Q1355.2083932319006 412.8161368876922 1348.3986919763006 420.3099177214803Q1341.5578961944193 427.80369855526845 1340.0031698803555 441.45419559274967L1340.0031698803555 441.45419559274967L1390.5939641399955 441.45419559274967Q1388.1374965637742 426.2489722412045 1381.980780360081 419.5325545644484Q1375.8240641563884 412.8161368876922 1365.967099325223 412.8161368876922ZM1477.6897322538562 505.944243100121L1429.7730672544062 505.944243100121L1429.7730672544062 502.36837257777404L1443.858887659825 495.1855370067987L1443.858887659825 428.4877781334565L1430.426052306313 416.8273307779771L1430.426052306313 415.27260446391324L1458.1934642754945 402.959172056527L1459.5305289055896 402.959172056527L1461.5516731138728 419.5325545644484L1462.671076059999 419.5325545644484Q1471.190976261069 411.0126543633781 1479.1200804627952 407.0014604730932Q1487.0802791908022 402.959172056527 1496.7195823379984 402.959172056527L1496.7195823379984 402.959172056527Q1509.9036614812608 402.959172056527 1518.299183577206 409.551211628158Q1526.694705673151 416.17434572607027 1526.694705673151 429.14076318536337L1526.694705673151 429.14076318536337L1526.694705673151 495.1855370067987L1540.8116206048512 502.36837257777404L1540.8116206048512 505.944243100121L1492.8949556054013 505.944243100121L1492.8949556054013 502.36837257777404L1508.7842585351345 495.1855370067987L1508.7842585351345 439.68180759471676Q1508.7842585351345 429.82484276355154 1502.6275423314414 424.6631514008593Q1496.4708261277483 419.5325545644484 1486.6449558228646 419.5325545644484L1486.6449558228646 419.5325545644484Q1480.581523198015 419.5325545644484 1473.3054040481961 421.5536987727315Q1466.0292848983768 423.54374845473325 1461.7693347978416 427.3683751873305L1461.7693347978416 427.3683751873305L1461.7693347978416 495.1855370067987L1477.6897322538562 502.36837257777404L1477.6897322538562 505.944243100121ZM1595.8800266489957 508.18304899237313L1595.8800266489957 508.18304899237313Q1586.0230618178302 508.18304899237313 1578.8713207731362 502.36837257777404Q1571.719579728442 496.55369616317495 1571.719579728442 486.0126517538216L1571.719579728442 486.0126517538216L1571.719579728442 415.7079278318511L1553.3427146962067 415.7079278318511L1553.3427146962067 414.37086320175615L1572.372564780349 405.19797794877906L1588.2618677100822 380.57111313400657L1589.6300268664586 380.57111313400657L1589.6300268664586 405.19797794877906L1619.1698268336727 405.19797794877906L1619.1698268336727 415.7079278318511L1589.6300268664586 415.7079278318511L1589.6300268664586 482.2191195475056Q1589.6300268664586 488.03379596210465 1594.7606237028695 490.7079252222946Q1599.9223150655616 493.41314900876586 1606.856394426287 493.41314900876586L1606.856394426287 493.41314900876586Q1611.1163445268216 493.41314900876586 1614.816593154294 492.9467311145467Q1618.485747255485 492.51140774660877 1621.190971041956 491.82732816842065L1621.190971041956 491.82732816842065L1621.8439560938627 491.82732816842065L1621.8439560938627 494.0661340606727Q1619.6051502016107 499.2278254233649 1613.01311062998 503.705437207869Q1606.4210710583488 508.18304899237313 1595.8800266489957 508.18304899237313ZM1676.2593770861 508.18304899237313L1676.2593770861 508.18304899237313Q1665.749427203028 508.18304899237313 1658.1312682641146 506.37956646805895Q1650.5131093252016 504.6071784700261 1642.6772887023194 500.5648900534599L1642.6772887023194 500.5648900534599L1642.6772887023194 475.5027018707495L1645.8178358567284 475.5027018707495L1652.9695769014224 487.81613427813573Q1659.9036562621477 500.129566685522 1675.5752975079117 500.129566685522L1675.5752975079117 500.129566685522Q1684.5305210769202 500.129566685522 1689.5678343344875 495.86961658498683Q1694.6051475920544 491.6096664844517 1694.6051475920544 484.2402637557887L1694.6051475920544 484.2402637557887Q1694.6051475920544 477.74150776300155 1691.4956949639268 474.1656372406545Q1688.3551478095173 470.5586721920262 1682.6337549737623 467.76016482671116Q1676.943456664288 464.9616574613961 1669.1076360414058 461.38578693904907L1669.1076360414058 461.38578693904907Q1657.6648503698957 456.25519010263815 1651.5081341662026 450.09847389894503Q1645.3514179625095 443.9417576952519 1645.3514179625095 432.7477282339917L1645.3514179625095 432.7477282339917Q1645.3514179625095 424.44548971689034 1650.0777859572636 417.7290720401342Q1654.7730594257368 411.0126543633781 1662.0491785755557 407.0014604730932Q1669.325297725375 402.959172056527 1677.1611183482573 402.959172056527L1677.1611183482573 402.959172056527Q1685.4322623390772 402.959172056527 1692.3663416998024 404.9803162648101Q1699.3315155868086 407.0014604730932 1706.4832566315026 410.57733099544015L1706.4832566315026 410.57733099544015L1706.4832566315026 434.9865341262437L1703.3427094770936 434.9865341262437L1695.9733067484308 423.10842508679536Q1692.1486800158336 417.07608698822736 1687.6710682313292 414.37086320175615Q1683.1934564468252 411.6967339415662 1678.0628596104143 411.6967339415662L1678.0628596104143 411.6967339415662Q1670.4447006715009 411.6967339415662 1665.842710781872 415.49026614788215Q1661.271815418524 419.3148928804794 1661.271815418524 426.03131055723554L1661.271815418524 426.03131055723554Q1661.271815418524 433.6183749698675 1666.744452044029 437.53628528130855Q1672.217088669534 441.45419559274967 1682.758133078887 446.3982252714729L1682.758133078887 446.3982252714729Q1689.0081328614242 449.53877242588203 1695.413605275368 452.64822505400986Q1701.7879831630298 455.78877220841895 1705.9235551584397 461.51016504417424Q1710.0591271538497 467.20046335364816 1710.0591271538497 477.74150776300155L1710.0591271538497 477.74150776300155Q1710.0591271538497 487.5984725941668 1704.6797741071887 494.4081738497668Q1699.3315155868086 501.248969631648 1691.4956949639268 504.7004620488699Q1683.6598743410445 508.18304899237313 1676.2593770861 508.18304899237313Z " fill="#ec8b5e" transform="matrix(0.5116783021276864,0,0,0.5116783021276864,0,78.34965324450127)"/></g></svg>